<svg width="32" height="32" viewBox="0 0 32 32" fill="none" xmlns="http://www.w3.org/2000/svg">
<path d="M17.5 16C17.5 16.2967 17.412 16.5867 17.2472 16.8334C17.0824 17.08 16.8481 17.2723 16.574 17.3858C16.2999 17.4994 15.9983 17.5291 15.7074 17.4712C15.4164 17.4133 15.1491 17.2704 14.9393 17.0607C14.7296 16.8509 14.5867 16.5836 14.5288 16.2926C14.4709 16.0017 14.5006 15.7001 14.6142 15.426C14.7277 15.1519 14.92 14.9176 15.1666 14.7528C15.4133 14.588 15.7033 14.5 16 14.5C16.3978 14.5 16.7794 14.658 17.0607 14.9393C17.342 15.2207 17.5 15.6022 17.5 16ZM10.5 14.5C10.2033 14.5 9.91332 14.588 9.66664 14.7528C9.41997 14.9176 9.22771 15.1519 9.11418 15.426C9.00065 15.7001 8.97094 16.0017 9.02882 16.2926C9.0867 16.5836 9.22956 16.8509 9.43934 17.0607C9.64912 17.2704 9.91639 17.4133 10.2074 17.4712C10.4983 17.5291 10.7999 17.4994 11.074 17.3858C11.3481 17.2723 11.5824 17.08 11.7472 16.8334C11.912 16.5867 12 16.2967 12 16C12 15.6022 11.842 15.2207 11.5607 14.9393C11.2794 14.658 10.8978 14.5 10.5 14.5ZM21.5 14.5C21.2033 14.5 20.9133 14.588 20.6666 14.7528C20.42 14.9176 20.2277 15.1519 20.1142 15.426C20.0007 15.7001 19.9709 16.0017 20.0288 16.2926C20.0867 16.5836 20.2296 16.8509 20.4393 17.0607C20.6491 17.2704 20.9164 17.4133 21.2074 17.4712C21.4983 17.5291 21.7999 17.4994 22.074 17.3858C22.3481 17.2723 22.5824 17.08 22.7472 16.8334C22.912 16.5867 23 16.2967 23 16C23 15.6022 22.842 15.2207 22.5607 14.9393C22.2794 14.658 21.8978 14.5 21.5 14.5ZM29 16C29.0005 18.2444 28.4199 20.4507 27.3147 22.4042C26.2095 24.3576 24.6174 25.9917 22.6934 27.1473C20.7693 28.3029 18.5788 28.9407 16.3352 28.9985C14.0915 29.0564 11.8711 28.5324 9.89 27.4775L5.63375 28.8963C5.28136 29.0138 4.9032 29.0308 4.54166 28.9455C4.18012 28.8602 3.84948 28.6759 3.58681 28.4132C3.32414 28.1505 3.13982 27.8199 3.0545 27.4583C2.96918 27.0968 2.98623 26.7186 3.10375 26.3663L4.5225 22.11C3.59519 20.3665 3.07725 18.4347 3.008 16.4612C2.93875 14.4877 3.32001 12.5243 4.12284 10.7202C4.92567 8.91601 6.12897 7.31844 7.6414 6.04875C9.15383 4.77905 10.9356 3.8706 12.8516 3.39235C14.7675 2.9141 16.7672 2.87862 18.699 3.28859C20.6307 3.69857 22.4436 4.54324 24.0001 5.75847C25.5566 6.97371 26.8158 8.52757 27.6822 10.3021C28.5485 12.0767 28.9992 14.0253 29 16ZM27 16C26.9995 14.3127 26.6109 12.648 25.8641 11.1349C25.1174 9.62183 24.0325 8.3008 22.6935 7.27405C21.3545 6.2473 19.7973 5.54235 18.1422 5.21374C16.4872 4.88514 14.7787 4.94168 13.149 5.37901C11.5194 5.81633 10.0121 6.6227 8.74394 7.73575C7.47577 8.84879 6.48065 10.2387 5.83558 11.7978C5.1905 13.357 4.91277 15.0437 5.02387 16.7274C5.13496 18.4111 5.63191 20.0466 6.47625 21.5075C6.54712 21.6302 6.59112 21.7665 6.60534 21.9074C6.61956 22.0483 6.60368 22.1907 6.55875 22.325L5 27L9.675 25.4413C9.77683 25.4065 9.88367 25.3888 9.99125 25.3888C10.1669 25.3891 10.3393 25.4356 10.4912 25.5238C12.1635 26.4913 14.0611 27.0013 15.9931 27.0025C17.925 27.0038 19.8232 26.4961 21.4967 25.5307C23.1702 24.5653 24.5599 23.1762 25.526 21.5031C26.492 19.83 27.0004 17.932 27 16Z" fill="white"/>
</svg>
