<svg width="70" height="88" viewBox="0 0 70 88" fill="none" xmlns="http://www.w3.org/2000/svg">
<path d="M35 19C31.9097 19 28.8887 19.9164 26.3192 21.6333C23.7497 23.3502 21.747 25.7905 20.5644 28.6456C19.3818 31.5007 19.0723 34.6423 19.6752 37.6733C20.2781 40.7042 21.7663 43.4883 23.9515 45.6735C26.1367 47.8587 28.9208 49.3469 31.9517 49.9498C34.9827 50.5527 38.1243 50.2432 40.9794 49.0606C43.8345 47.878 46.2748 45.8753 47.9917 43.3058C49.7086 40.7363 50.625 37.7153 50.625 34.625C50.625 30.481 48.9788 26.5067 46.0485 23.5765C43.1183 20.6462 39.144 19 35 19ZM35 44C33.1458 44 31.3332 43.4502 29.7915 42.42C28.2498 41.3899 27.0482 39.9257 26.3386 38.2127C25.6291 36.4996 25.4434 34.6146 25.8051 32.796C26.1669 30.9775 27.0598 29.307 28.3709 27.9959C29.682 26.6848 31.3525 25.7919 33.171 25.4301C34.9896 25.0684 36.8746 25.2541 38.5877 25.9636C40.3007 26.6732 41.7649 27.8748 42.795 29.4165C43.8252 30.9582 44.375 32.7708 44.375 34.625C44.375 37.1114 43.3873 39.496 41.6291 41.2541C39.871 43.0123 37.4864 44 35 44ZM35 0.25C25.8864 0.260339 17.1489 3.8853 10.7046 10.3296C4.2603 16.7739 0.635339 25.5114 0.625 34.625C0.625 46.8906 6.29297 59.8906 17.0312 72.2227C21.8563 77.7952 27.2869 82.8131 33.2227 87.1836C33.7481 87.5517 34.3741 87.7491 35.0156 87.7491C35.6572 87.7491 36.2832 87.5517 36.8086 87.1836C42.7334 82.8113 48.1534 77.7934 52.9688 72.2227C63.6914 59.8906 69.375 46.8906 69.375 34.625C69.3647 25.5114 65.7397 16.7739 59.2954 10.3296C52.8511 3.8853 44.1136 0.260339 35 0.25ZM35 80.7188C28.543 75.6406 6.875 56.9883 6.875 34.625C6.875 27.1658 9.83816 20.0121 15.1126 14.7376C20.3871 9.46316 27.5408 6.5 35 6.5C42.4592 6.5 49.6129 9.46316 54.8874 14.7376C60.1618 20.0121 63.125 27.1658 63.125 34.625C63.125 56.9805 41.457 75.6406 35 80.7188Z" fill="#8F2D56"/>
</svg>
