<svg width="100" height="100" viewBox="0 0 100 100" fill="none" xmlns="http://www.w3.org/2000/svg">
<circle cx="50" cy="50" r="48.5" stroke="#522E38" stroke-width="3"/>
<path d="M69.8552 47.332L51.1052 28.582C50.9601 28.4368 50.7878 28.3215 50.5981 28.2429C50.4084 28.1643 50.2051 28.1238 49.9998 28.1238C49.7944 28.1238 49.5911 28.1643 49.4014 28.2429C49.2117 28.3215 49.0394 28.4368 48.8943 28.582L30.1443 47.332C29.9255 47.5506 29.7765 47.8291 29.7161 48.1323C29.6557 48.4356 29.6867 48.75 29.805 49.0356C29.9234 49.3213 30.1239 49.5654 30.381 49.7371C30.6382 49.9087 30.9406 50.0003 31.2498 50H39.0623V65.625C39.0623 66.4538 39.3915 67.2487 39.9776 67.8347C40.5636 68.4208 41.3585 68.75 42.1873 68.75H57.8123C58.6411 68.75 59.4359 68.4208 60.022 67.8347C60.608 67.2487 60.9373 66.4538 60.9373 65.625V50H68.7498C69.059 50.0003 69.3613 49.9087 69.6185 49.7371C69.8757 49.5654 70.0761 49.3213 70.1945 49.0356C70.3129 48.75 70.3438 48.4356 70.2834 48.1323C70.223 47.8291 70.074 47.5506 69.8552 47.332ZM59.3748 46.875C58.9604 46.875 58.5629 47.0396 58.2699 47.3327C57.9769 47.6257 57.8123 48.0231 57.8123 48.4375V65.625H42.1873V48.4375C42.1873 48.0231 42.0226 47.6257 41.7296 47.3327C41.4366 47.0396 41.0392 46.875 40.6248 46.875H35.0213L49.9998 31.8965L64.9783 46.875H59.3748Z" fill="#522E38"/>
</svg>
